# xmcd
#
# Track frame offsets:
#	150
#	43216
#	70975
#	85016
#	132220
#	154811
#	179892
#	219107
#
# Disc length: 3971 seconds
#
# Revision: 1
# Processed by: cddbd v1.5.2PL0 Copyright (c) Steve Scherf et al.
# Submitted via: audiograbber 1.83.01
#
DISCID=6f0f8108
DTITLE=Grateful Dead - 71-08-26 Gaelic Park, Bronx NY
DYEAR=1900
DGENRE=
TTITLE0=Good Lovin'
TTITLE1=Casey Jones
TTITLE2=Me and My Uncle
TTITLE3=China Cat Sunflower > I Know You Rider
TTITLE4=Deal
TTITLE5=Cumberland Blues
TTITLE6=Truckin'
TTITLE7=The Other One > Drums > The Other One
EXTD=
EXTT0=
EXTT1=
EXTT2=
EXTT3=
EXTT4=
EXTT5=
EXTT6=
EXTT7=
PLAYORDER=
